<svg width="96" height="96" xmlns="http://www.w3.org/2000/svg" xmlns:xlink="http://www.w3.org/1999/xlink" xml:space="preserve" overflow="hidden"><g transform="translate(-860 -76)"><g><path d="M948.44 94.161 947.146 92.867 949.154 90.767C950.209 89.576 950.466 87.167 947.716 84.316 944.937 81.535 942.08 81.8 941.031 82.852L910.637 111.221 920.337 120.921 944.382 95.759 945.612 96.989C946.087 97.4152 946.132 98.1441 945.712 98.625L927.378 116.961C926.583 117.728 926.562 118.994 927.329 119.789 928.096 120.583 929.362 120.605 930.157 119.838 930.174 119.822 930.19 119.806 930.206 119.789L948.543 101.453C950.525 99.4095 950.479 96.1477 948.44 94.161Z" fill="#000000" fill-rule="nonzero" fill-opacity="1"/><path d="M888.068 134.519C887.309 135.297 886.575 136.1 885.868 136.928L877.2 146.715 884.838 154.354 894.625 145.68C895.453 144.976 896.256 144.243 897.035 143.48L917.293 123.97 907.583 114.26Z" fill="#000000" fill-rule="nonzero" fill-opacity="1"/><path d="M867.284 159.553C867.002 160.057 867.109 160.689 867.54 161.073L865.257 164.787C864.95 165.29 865.109 165.947 865.612 166.254 865.776 166.354 865.964 166.408 866.157 166.41 866.359 166.409 866.556 166.351 866.726 166.243L870.403 163.933C870.784 164.355 871.404 164.46 871.903 164.188L881.403 157.046 874.488 150.132Z" fill="#000000" fill-rule="nonzero" fill-opacity="1"/></g></g></svg>