<?xml version="1.0" encoding="UTF-8" standalone="no"?>
<svg
   width="20"
   height="19"
   xml:space="preserve"
   overflow="hidden"
   version="1.1"
   id="svg32"
   xmlns="http://www.w3.org/2000/svg"
   xmlns:svg="http://www.w3.org/2000/svg"><defs
     id="defs36" /><g
     transform="translate(-644,-350)"
     id="g30"><g
       id="g28"><g
         id="g26"><g
           id="g24"><g
             id="g22"><path
               d="m 183.881,34.3313 c -0.15,0.1499 -0.375,0.1499 -0.506,0 -0.15,-0.15 -0.15,-0.375 0,-0.5063 0.15,-0.1313 0.375,-0.15 0.506,0 0.132,0.15 0.132,0.375 0,0.5063 z m 0.507,-1.0126 c -0.338,-0.3375 -0.826,-0.4125 -1.238,-0.2062 -0.225,0.0938 -0.994,0.9187 -0.994,0.9187 -1.143,1.1438 -2.662,3.0188 -3.225,4.1063 l -2.493,-2.475 c -0.15,-0.15 -0.376,-0.15 -0.525,0 l -0.75,0.75 6.131,6.1312 0.75,-0.75 c 0.15,-0.1499 0.15,-0.375 0,-0.5249 l -2.475,-2.4938 c 1.106,-0.5813 2.962,-2.0813 4.106,-3.225 0,0 0.825,-0.7875 0.919,-0.9937 0.206,-0.4125 0.131,-0.9001 -0.206,-1.2376 z"
               fill="#888888"
               fill-rule="nonzero"
               fill-opacity="1"
               transform="matrix(1.04467,0,0,1,468.495,319.5)"
               id="path18" /><path
               d="m 169.8,41.775 c -0.15,0.15 -0.15,0.375 0,0.525 l 4.594,4.5938 3.318,-3.3188 0.263,0.2625 -3.075,3.5625 0.506,0.5062 c 0.15,0.15 0.375,0.15 0.525,0 l 4.781,-4.7812 -6.131,-6.1312 z"
               fill="#888888"
               fill-rule="nonzero"
               fill-opacity="1"
               transform="matrix(1.04467,0,0,1,468.495,319.5)"
               id="path20" /></g></g></g></g></g></svg>
